<svg width="44" height="45" viewBox="0 0 44 45" fill="none" xmlns="http://www.w3.org/2000/svg">
<path d="M37.6848 36.1688L31.503 29.8125C33.4975 27.1921 34.5797 23.9562 34.5757 20.625C34.5757 17.6583 33.7226 14.7582 32.1244 12.2915C30.5261 9.82472 28.2544 7.90213 25.5966 6.76681C22.9387 5.6315 20.0141 5.33445 17.1926 5.91323C14.371 6.49201 11.7793 7.92062 9.74507 10.0184C7.71086 12.1162 6.32554 14.7889 5.7643 17.6987C5.20306 20.6084 5.4911 23.6244 6.59202 26.3653C7.69293 29.1061 9.55725 31.4488 11.9492 33.097C14.3412 34.7453 17.1534 35.625 20.0303 35.625C23.2605 35.6292 26.3984 34.5131 28.9394 32.4563L35.103 38.8313C35.272 39.007 35.4731 39.1465 35.6947 39.2417C35.9162 39.3369 36.1539 39.3859 36.3939 39.3859C36.6339 39.3859 36.8716 39.3369 37.0931 39.2417C37.3147 39.1465 37.5158 39.007 37.6848 38.8313C37.8552 38.6569 37.9905 38.4496 38.0828 38.2211C38.1751 37.9926 38.2226 37.7475 38.2226 37.5C38.2226 37.2525 38.1751 37.0074 38.0828 36.7789C37.9905 36.5504 37.8552 36.3431 37.6848 36.1688ZM9.12117 20.625C9.12117 18.4 9.76098 16.2249 10.9597 14.3748C12.1584 12.5248 13.8622 11.0828 15.8555 10.2314C17.8489 9.37988 20.0424 9.15709 22.1585 9.59117C24.2747 10.0253 26.2185 11.0967 27.7442 12.6701C29.2698 14.2434 30.3088 16.248 30.7297 18.4302C31.1507 20.6125 30.9346 22.8745 30.109 24.9302C29.2833 26.9859 27.885 28.7429 26.091 29.979C24.297 31.2152 22.1879 31.875 20.0303 31.875C17.137 31.875 14.3622 30.6897 12.3164 28.58C10.2705 26.4702 9.12117 23.6087 9.12117 20.625Z" fill="#EFEFEF"/>
</svg>
